<?xml version="1.0" encoding="UTF-8" standalone="no"?>
<svg width="97px" height="36px" viewBox="0 0 97 36" version="1.1" xmlns="http://www.w3.org/2000/svg" xmlns:xlink="http://www.w3.org/1999/xlink" xmlns:sketch="http://www.bohemiancoding.com/sketch/ns">
    <!-- Generator: Sketch 3.3 (11970) - http://www.bohemiancoding.com/sketch -->
    <title>лого + leaf</title>
    <desc>Created with Sketch.</desc>
    <defs>
        <rect id="path-1" x="6.85018752" y="5.87798103" width="28.0986279" height="28.232121" rx="4.94382022"></rect>
    </defs>
    <g id="Page-1" stroke="none" stroke-width="1" fill="none" fill-rule="evenodd" sketch:type="MSPage">
        <g id="Artboard-1-Copy-3" sketch:type="MSArtboardGroup" transform="translate(-1156.000000, -669.000000)">
            <g id="лого-+-leaf" sketch:type="MSLayerGroup" transform="translate(1153.000000, 667.000000)">
                <g id="лого" transform="translate(42.436652, 9.887640)" fill="#FFFFFF" sketch:type="MSShapeGroup">
                    <g id="Group">
                        <path d="M41.0167524,5.8701014 L43.6885174,5.8701014 C43.7802518,6.18087147 43.8031854,17.9440943 43.711451,18.5311044 L40.9938188,18.5311044 C40.8906176,18.0361743 41.0052856,17.5182242 40.9135512,16.942724 C40.4778127,17.3225541 40.0879414,17.7023842 39.6292693,17.9786243 C38.1156514,18.8764045 36.4873655,19.1411346 34.8017455,18.6807344 C32.9211899,18.1627843 32.0497129,16.747054 31.7286424,14.9169636 C31.6483748,14.4910935 31.636908,14.0652233 31.636908,13.6278432 L31.636908,6.38805152 L31.636908,5.8931214 L34.3545402,5.8931214 C34.4577414,6.04275144 34.4118742,6.21540148 34.4118742,6.38805152 C34.4118742,8.51740203 34.4118742,10.6467525 34.423341,12.764593 C34.423341,13.1559331 34.4462746,13.5357632 34.5036086,13.9271033 C34.6756107,15.2162236 35.4668201,16.0449438 36.7625687,16.2175939 C38.4711223,16.4477939 39.7898046,15.7456837 40.8332836,14.4105234 C40.982352,14.2263634 40.9708852,14.0076733 40.9708852,13.8004933 L40.9708852,6.43409153 C40.9594184,6.24993149 40.925018,6.07728145 41.0167524,5.8701014 L41.0167524,5.8701014 Z" id="Shape"></path>
                        <path d="M56.9212075,9.20800219 C56.1987989,8.87421211 55.5681248,8.52891203 54.8915834,8.33324198 C53.699036,7.9879419 52.4835549,7.81529186 51.2451403,8.03398191 C50.8438022,8.10304193 50.4653977,8.24116196 50.155794,8.51740203 C49.5824539,9.02384215 49.6397879,9.78350233 50.3048625,10.1748424 C51.1190054,10.6582625 52.0592832,10.7618526 52.9651606,10.9690326 C54.0201065,11.2107427 55.0406519,11.5100027 55.9579961,12.1085229 C58.1252217,13.5127432 58.2513566,16.758564 55.5681248,18.1397643 C54.3297101,18.7728145 53.0110278,18.9454645 51.6579451,18.8994245 C50.1901944,18.8533845 48.7683109,18.5886544 47.4152282,17.9786243 C46.9565561,17.7714442 46.6928197,17.5297342 46.7501537,16.954234 C46.8189545,16.3211839 46.7616205,15.6766237 46.7616205,14.9630036 C47.5069626,15.4234037 48.2064376,15.8032338 48.9747134,16.0334338 C50.4195305,16.4593039 51.8758144,16.654974 53.3779655,16.3096739 C53.7449032,16.2291039 54.0774405,16.0679638 54.3526437,15.8032338 C54.8686498,15.2967936 54.8113158,14.5371335 54.1921085,14.1573034 C53.4926335,13.7084133 52.6670238,13.6048232 51.8758144,13.3976432 C50.8667358,13.1329131 49.8576572,12.8796931 48.9059125,12.419293 C47.5298963,11.7517128 46.8418881,10.6812825 46.8992221,9.12743217 C46.9565561,7.58509181 47.8165663,6.61825158 49.1581822,6.07728145 C50.9470034,5.34064127 52.7931586,5.43272129 54.6507806,5.76651137 C55.3617223,5.8931214 56.0267969,6.14634146 56.657471,6.50315155 C56.8180063,6.59523157 56.9326743,6.67580159 56.9326743,6.89449164 C56.9212075,7.61962181 56.9212075,8.36777199 56.9212075,9.20800219 L56.9212075,9.20800219 Z" id="Shape"></path>
                        <path d="M-0.0344004074,5.8701014 L2.24749328,5.8701014 C2.35069451,5.43272129 2.29336049,5.0298712 2.3048273,4.6270211 C2.3162941,3.94793094 2.3277609,3.26884078 2.54563015,2.62428062 C3.07310306,1.11647027 4.1739161,0.345300082 5.72193443,0.207180049 C6.81128067,0.115100027 7.8891601,0.241710058 8.93263913,0.610030145 C9.09317436,0.667580159 9.2537096,0.690600164 9.2537096,0.943820225 C9.24224279,1.63442039 9.2537096,2.31351055 9.2537096,3.07317073 C8.60010186,2.90052069 8.01529493,2.68183064 7.38462079,2.64730063 C7.16675155,2.63579063 6.9603491,2.62428062 6.74247985,2.65881063 C5.72193443,2.78542066 5.20592832,3.30337079 5.12566071,4.33927103 C5.0912603,4.82269115 5.1141939,5.31762127 5.1141939,5.84708139 L9.20784239,5.84708139 L9.20784239,8.29871198 L5.1027271,8.29871198 L5.1027271,13.4091532 L5.1027271,18.5311044 C4.50631348,18.5311044 3.49486341,18.524725 2.84768506,18.5220542 C2.48699512,18.5205657 2.239819,18.5220544 2.239819,18.5220544 L2.239819,8.33450773 C2.239819,8.33450773 0.607740531,8.32173198 -0.0344004074,8.32173198 L-0.0344004074,5.8701014 Z" id="Shape"></path>
                        <path d="M28.4606037,8.8051521 C27.6579276,8.47136202 26.9240522,8.19512195 26.1443096,8.08002192 C24.1834864,7.79227186 22.4405324,8.18361195 21.2594518,9.91011236 C20.3650412,11.1992327 20.319174,12.637983 21.0071821,14.0422033 C21.7181239,15.5039737 22.9680054,16.2521239 24.5618909,16.3902439 C25.8691064,16.5053439 27.1304547,16.2866539 28.3000685,15.6536037 C28.3918029,15.6075637 28.4835373,15.5154837 28.6670062,15.5615237 L28.6670062,17.7254042 C28.6670062,17.8405042 28.5867386,17.8980543 28.4950041,17.9440943 C25.7659052,19.3828446 21.6378563,19.4519046 19.1266265,16.2751439 C16.7644652,13.2940532 17.1887369,7.19375171 22.8533373,5.72047136 C24.6421585,5.26007125 26.4309797,5.4787613 28.1395333,6.22691148 C28.3803361,6.33050151 28.4950041,6.45711154 28.4835373,6.7333516 C28.4491369,7.40093176 28.4606037,8.06851192 28.4606037,8.8051521 L28.4606037,8.8051521 Z" id="Shape"></path>
                        <path d="M14.688974,18.5426144 L11.9254746,18.5426144 L11.9254746,5.8931214 L14.688974,5.8931214 L14.688974,18.5426144 L14.688974,18.5426144 Z" id="Shape"></path>
                        <path d="M13.3129577,3.57961085 C12.3038791,3.57961085 11.5470701,2.81995067 11.5585369,1.80707043 C11.5700037,0.805700192 12.3612131,0.0230200055 13.3358913,0.0345300082 C14.2876359,0.046040011 15.0444448,0.8402302 15.0444448,1.83009044 C15.0444448,2.80844067 14.2876359,3.57961085 13.3129577,3.57961085 L13.3129577,3.57961085 Z" id="Shape"></path>
                    </g>
                </g>
                <g id="leaf">
                    <mask id="mask-2" sketch:name="background" fill="white">
                        <use xlink:href="#path-1"></use>
                    </mask>
                    <use id="background" fill="#FFFFFF" sketch:type="MSShapeGroup" transform="translate(20.899501, 19.994042) rotate(-315.000000) translate(-20.899501, -19.994042) " xlink:href="#path-1"></use>
                    <path d="M20.0495366,30.1177431 C20.8937268,30.1177431 25.6749407,26.2602616 25.6749407,22.7286053 C25.6749407,19.196949 23.5644652,16.1067497 22.29818,13.8994645 C21.0318947,11.6921793 19.1324668,8.82270854 18.4993242,8.82270854 C17.8661815,8.82270854 15.7557061,12.1336363 14.9115159,13.4580075 C14.0673258,14.7823786 11.3237077,18.5347634 11.3237077,22.2871482 C11.3237077,26.0395331 14.4872519,29.8712251 16.3866797,30.5334106 L16.3159691,36.0430271 C16.3159691,36.0430271 16.8109438,37.2966876 17.4440865,37.2966876 C18.0772291,37.2966876 18.2882766,36.8552305 18.2882766,35.9723165 C18.2882766,35.0894024 18.0772291,16.1067497 18.0772291,16.1067497 C18.0772291,16.1067497 18.3072986,15.4531609 18.584541,15.4531606 C18.8617835,15.4531603 19.0639251,16.036039 19.0639251,16.036039 C19.0639251,16.036039 20.0495366,30.1177431 20.0495366,30.1177431 Z" fill="#13B4F0" sketch:type="MSShapeGroup" mask="url(#mask-2)">
                        <g transform="translate(18.499324, 23.059698) rotate(-315.000000) translate(-18.499324, -23.059698) "></g>
                    </path>
                </g>
            </g>
        </g>
    </g>
</svg>